Coordinates
version=1
nRows=43
nColumns=12
inDegrees=yes

Units are S.I. units (second, meters, Newtons, ...)
Angles are in degrees

endheader
time	SC_y	SC_z	SC_x	AC_y	AC_z	AC_x	GH_y	GH_z	GH_yy	EL_x	PS_y
       0.0              -18.32           6.85          28.22           55.5          -4.64          8.759          109.2          85.11         -61.08          25.93          103.4
   0.04015              -18.32          6.854          28.23           55.5         -4.639          8.757          109.2           85.1         -61.06          25.94          103.4
    0.0803              -18.32          6.858          28.24           55.5         -4.639          8.755          109.1          85.08         -61.04          25.96          103.4
    0.1205              -18.32          6.863          28.25           55.5         -4.638          8.753          109.1          85.07         -61.02          25.97          103.4
    0.1606              -18.32          6.868          28.26           55.5         -4.638          8.751          109.1          85.05          -61.0          25.99          103.4
    0.2008              -18.32          6.874          28.27           55.5         -4.637          8.749          109.0          85.04         -60.97          26.01          103.4
    0.2409              -18.32          6.879          28.28           55.5         -4.637          8.747          109.0          85.02         -60.95          26.02          103.5
    0.2811              -18.32          6.886          28.29           55.5         -4.636          8.744          108.9           85.0         -60.92          26.04          103.5
    0.3212              -18.33          6.892           28.3           55.5         -4.635          8.742          108.9          84.98         -60.89          26.07          103.5
    0.3614              -18.33          6.899          28.32           55.5         -4.634          8.739          108.8          84.96         -60.86          26.09          103.5
    0.4015              -18.33          6.907          28.33           55.5         -4.634          8.736          108.8          84.94         -60.83          26.11          103.5
    0.4417              -18.33          6.915          28.35           55.5         -4.633          8.733          108.7          84.91         -60.79          26.14          103.5
    0.4818              -18.33          6.924          28.36           55.5         -4.632          8.729          108.6          84.89         -60.75          26.17          103.5
     0.522              -18.33          6.933          28.38           55.5         -4.631          8.725          108.6          84.86         -60.71           26.2          103.5
    0.5621              -18.34          6.944           28.4           55.5         -4.629          8.721          108.5          84.83         -60.66          26.23          103.5
    0.6023              -18.34          6.955          28.42           55.5         -4.628          8.717          108.4          84.79         -60.61          26.26          103.5
    0.6424              -18.34          6.967          28.45           55.5         -4.627          8.712          108.3          84.76         -60.56           26.3          103.5
    0.6826              -18.34           6.98          28.47           55.5         -4.625          8.707          108.2          84.72          -60.5          26.35          103.5
    0.7227              -18.35          6.995           28.5           55.5         -4.624          8.701          108.1          84.67         -60.43          26.39          103.5
    0.7629              -18.35           7.01          28.53           55.5         -4.622          8.695          108.0          84.63         -60.36          26.44          103.5
     0.803              -18.35          7.028          28.56           55.5          -4.62          8.688          107.9          84.57         -60.28           26.5          103.5
    0.8432              -18.36          7.047           28.6           55.5         -4.618           8.68          107.7          84.52          -60.2          26.56          103.5
    0.8833              -18.36          7.068          28.64           55.5         -4.616          8.672          107.6          84.45          -60.1          26.62          103.6
    0.9235              -18.37          7.091          28.68          55.49         -4.613          8.662          107.4          84.38          -60.0           26.7          103.6
    0.9636              -18.37          7.117          28.73          55.49          -4.61          8.652          107.2          84.31         -59.88          26.78          103.6
     1.004              -18.38          7.146          28.79          55.49         -4.607          8.641          107.0          84.22         -59.75          26.87          103.6
     1.044              -18.39          7.179          28.85          55.49         -4.603          8.628          106.7          84.12          -59.6          26.98          103.6
     1.084              -18.39          7.216          28.92          55.49         -4.599          8.613          106.5          84.01         -59.44          27.09          103.6
     1.124               -18.4          7.257           29.0          55.49         -4.594          8.597          106.2          83.89         -59.25          27.22          103.7
     1.164              -18.41          7.304          29.08          55.49         -4.589          8.578          105.8          83.75         -59.04          27.37          103.7
     1.205              -18.42          7.357          29.19          55.49         -4.583          8.557          105.4          83.59          -58.8          27.54          103.7
     1.245              -18.44          7.419           29.3          55.49         -4.576          8.532          105.0           83.4         -58.53          27.74          103.7
     1.285              -18.45           7.49          29.44          55.49         -4.568          8.504          104.4          83.19         -58.21          27.96          103.8
     1.325              -18.47          7.572          29.59          55.49         -4.559          8.471          103.8          82.94         -57.84          28.23          103.8
     1.365              -18.49          7.669          29.78          55.49         -4.549          8.433          103.1          82.65         -57.41          28.53          103.9
     1.405              -18.51          7.782          29.99          55.49         -4.536          8.388          102.2          82.31          -56.9           28.9          103.9
     1.445              -18.54          7.917          30.25          55.49         -4.521          8.334          101.2          81.91         -56.29          29.32          104.0
     1.486              -18.58          8.079          30.56          55.48         -4.503          8.269          100.0          81.42         -55.56          29.84          104.1
     1.526              -18.62          8.275          30.93          55.48         -4.481          8.191          98.58          80.84         -54.68          30.46          104.2
     1.566              -18.67          8.515          31.38          55.48         -4.454          8.096           96.8          80.12         -53.61          31.22          104.3
     1.606              -18.73           8.81          31.94          55.48         -4.421          7.978           94.6          79.23         -52.28          32.16          104.5
     1.646              -18.81          9.179          32.64          55.47          -4.38          7.832          91.85          78.13         -50.63          33.33          104.7
     1.686              -18.91          9.643          33.52          55.47         -4.328          7.647           88.4          76.74         -48.55          34.81          104.9
